<svg width="32" height="32" viewBox="0 0 32 32" fill="none" xmlns="http://www.w3.org/2000/svg">
<path d="M15.9996 23.4606C17.0087 23.4606 17.9303 23.3507 18.7708 23.1609L16.8967 21.2868C16.6055 21.3092 16.31 21.3273 15.9996 21.3273C10.292 21.3273 8.08088 17.225 7.54543 15.9941C7.94749 15.0968 8.49052 14.2696 9.15392 13.544L7.66276 12.0528C6.02226 13.8309 5.40041 15.6218 5.38868 15.657C5.3151 15.876 5.3151 16.1131 5.38868 16.3322C5.41108 16.4026 7.85795 23.4606 15.9996 23.4606ZM15.9996 8.5275C14.0402 8.5275 12.4306 8.94989 11.0888 9.57388L7.15397 5.64008L5.64574 7.14832L24.8453 26.348L26.3535 24.8398L22.8133 21.2996C25.6015 19.2185 26.5967 16.377 26.6116 16.3322C26.6852 16.1131 26.6852 15.876 26.6116 15.657C26.5882 15.5855 24.1413 8.5275 15.9996 8.5275ZM21.303 19.7892L18.871 17.3572C19.0737 16.9412 19.1996 16.4836 19.1996 15.9941C19.1996 14.2437 17.75 12.7941 15.9996 12.7941C15.51 12.7941 15.0525 12.92 14.6375 13.1237L12.709 11.1952C13.7677 10.8319 14.8804 10.6512 15.9996 10.6608C21.7072 10.6608 23.9184 14.7631 24.4538 15.9941C24.1317 16.7322 23.2101 18.4922 21.303 19.7892Z" fill="#767676"/>
</svg>
