<svg width="32" height="32" viewBox="0 0 32 32" fill="none" xmlns="http://www.w3.org/2000/svg">
<path d="M16.0002 12.8172C15.1578 12.8228 14.3514 13.1599 13.7558 13.7556C13.1601 14.3513 12.8229 15.1576 12.8174 16C12.8174 17.742 14.2581 19.1828 16.0002 19.1828C17.7412 19.1828 19.183 17.742 19.183 16C19.183 14.259 17.7412 12.8172 16.0002 12.8172Z" fill="#767676"/>
<path d="M16.0002 8.5733C7.90203 8.5733 5.46824 15.5935 5.44596 15.6646L5.3335 15.9998L5.44489 16.3351C5.46824 16.4062 7.90203 23.4264 16.0002 23.4264C24.0983 23.4264 26.5321 16.4062 26.5544 16.3351L26.6668 15.9998L26.5554 15.6646C26.5321 15.5935 24.0983 8.5733 16.0002 8.5733ZM16.0002 21.3045C10.3231 21.3045 8.12376 17.2241 7.59117 15.9998C8.12588 14.7713 10.3263 10.6952 16.0002 10.6952C21.6772 10.6952 23.8766 14.7755 24.4092 15.9998C23.8744 17.2284 21.6741 21.3045 16.0002 21.3045Z" fill="#767676"/>
</svg>
