<svg width="420" height="448" viewBox="0 0 420 448" fill="none" xmlns="http://www.w3.org/2000/svg">
<g clip-path="url(#clip0_1_766)">
<path d="M92.2282 1.41516H321.666C327.453 1.41516 332.152 6.11434 332.152 11.9011V283.503C332.152 289.289 327.453 293.989 321.666 293.989H92.2282C86.4414 293.989 81.7422 289.289 81.7422 283.503V11.9036C81.7422 6.11678 86.4414 1.4176 92.2282 1.4176V1.41516Z" fill="white"/>
<path d="M321.666 294.53H92.228C86.1486 294.53 81.2007 289.584 81.2007 283.502V11.9033C81.2007 5.8239 86.1462 0.875977 92.228 0.875977H321.666C327.746 0.875977 332.693 5.82146 332.693 11.9033V283.505C332.693 289.584 327.748 294.532 321.666 294.532V294.53ZM92.228 1.95628C86.7436 1.95628 82.281 6.41891 82.281 11.9033V283.505C82.281 288.989 86.7436 293.452 92.228 293.452H321.666C327.151 293.452 331.613 288.989 331.613 283.505V11.9033C331.613 6.41891 327.151 1.95628 321.666 1.95628H92.228Z" fill="black"/>
<path d="M332.152 106.272C331.855 106.272 331.613 106.031 331.613 105.733V72.7368C331.613 72.4393 331.855 72.1979 332.152 72.1979C332.45 72.1979 332.691 72.4393 332.691 72.7368V105.733C332.691 106.031 332.45 106.272 332.152 106.272Z" fill="black"/>
<path d="M224.17 15.9034H95.6538V279.501H224.17V15.9034Z" fill="white"/>
<path d="M224.171 280.042H95.6539C95.3564 280.042 95.115 279.801 95.115 279.503V15.9028C95.115 15.6053 95.3564 15.3639 95.6539 15.3639H224.171C224.468 15.3639 224.709 15.6053 224.709 15.9028V279.501C224.709 279.798 224.468 280.04 224.171 280.04V280.042ZM96.1928 278.962H223.629V16.4442H96.1928V278.962Z" fill="black"/>
<path d="M318.239 15.9036H237.419V279.502H318.239V15.9036Z" fill="white"/>
<path d="M318.239 280.042H237.419C237.122 280.042 236.88 279.801 236.88 279.503V15.9029C236.88 15.6054 237.122 15.364 237.419 15.364H318.239C318.537 15.364 318.778 15.6054 318.778 15.9029V279.501C318.778 279.798 318.537 280.04 318.239 280.04V280.042ZM237.958 278.962H317.698V16.4443H237.958V278.962Z" fill="black"/>
<path d="M349.044 297.229H58.2239V308.722H349.044V297.229Z" fill="white"/>
<path d="M349.046 309.263H58.2237C57.9262 309.263 57.6848 309.022 57.6848 308.724V297.231C57.6848 296.934 57.9262 296.692 58.2237 296.692H349.044C349.341 296.692 349.583 296.934 349.583 297.231V308.724C349.583 309.022 349.341 309.263 349.044 309.263H349.046ZM58.7651 308.183H348.505V297.77H58.7651V308.183Z" fill="black"/>
<path d="M316.318 268.124C315.516 267.856 314.65 267.71 313.736 267.71H311.624V261.745H274.945V283.131C274.945 291.583 281.795 298.436 290.245 298.436H296.324C304.367 298.436 310.953 292.227 311.573 284.341H313.738C318.279 284.341 321.646 280.432 321.646 275.891V275.828C321.646 272.201 319.5 269.19 316.323 268.124H316.318ZM313.428 279.59H311.621V272.462H313.428C315.374 272.462 316.95 274.082 316.95 276.028C316.95 277.974 315.372 279.593 313.428 279.593V279.59Z" fill="white"/>
<path d="M296.321 298.978H290.242C281.507 298.978 274.401 291.869 274.401 283.131V261.745C274.401 261.447 274.642 261.206 274.94 261.206H311.619C311.916 261.206 312.158 261.447 312.158 261.745V267.168H313.731C314.684 267.168 315.611 267.317 316.486 267.61C319.944 268.771 322.178 271.994 322.178 275.825V275.889C322.178 280.847 318.388 284.88 313.731 284.88H312.058C311.18 292.822 304.362 298.975 296.317 298.975L296.321 298.978ZM275.484 262.286V283.131C275.484 291.274 282.104 297.897 290.244 297.897H296.324C303.976 297.897 310.436 291.925 311.034 284.302C311.055 284.022 311.29 283.805 311.572 283.805H313.738C317.869 283.805 321.105 280.33 321.105 275.894V275.83C321.105 272.472 319.159 269.648 316.15 268.639C315.386 268.383 314.574 268.254 313.738 268.254H311.626C311.329 268.254 311.087 268.012 311.087 267.715V262.291H275.488L275.484 262.286ZM313.428 280.132H311.621C311.324 280.132 311.082 279.891 311.082 279.593V272.465C311.082 272.168 311.324 271.926 311.621 271.926H313.428C315.669 271.926 317.491 273.767 317.491 276.03C317.491 278.293 315.669 280.134 313.428 280.134V280.132ZM312.163 279.052H313.428C315.072 279.052 316.411 277.696 316.411 276.028C316.411 274.36 315.072 273.004 313.428 273.004H312.163V279.052Z" fill="black"/>
<path d="M296.321 298.978H290.242C281.507 298.978 274.401 291.869 274.401 283.131V261.745C274.401 261.447 274.642 261.206 274.94 261.206C275.237 261.206 275.479 261.447 275.479 261.745V283.131C275.479 291.274 282.1 297.897 290.24 297.897H296.319C303.971 297.897 310.431 291.925 311.029 284.302C311.051 284.022 311.285 283.805 311.568 283.805H313.733C317.864 283.805 321.1 280.33 321.1 275.894V275.83C321.1 274.279 320.681 272.804 319.886 271.563C319.725 271.312 319.798 270.978 320.049 270.817C320.3 270.656 320.634 270.729 320.795 270.98C321.702 272.394 322.18 274.072 322.18 275.83V275.894C322.18 280.851 318.391 284.885 313.733 284.885H312.06C311.182 292.827 304.364 298.98 296.319 298.98L296.321 298.978ZM313.277 280.132H312.116C311.546 280.132 311.082 279.669 311.082 279.098V272.958C311.082 272.387 311.546 271.924 312.116 271.924H313.428C314.567 271.924 315.664 272.416 316.435 273.277C317.218 274.15 317.593 275.318 317.464 276.481C317.237 278.562 315.435 280.132 313.275 280.132H313.277ZM312.163 279.052H313.277C314.86 279.052 316.228 277.871 316.391 276.364C316.486 275.504 316.208 274.643 315.63 273.999C315.062 273.367 314.26 273.004 313.426 273.004H312.16V279.052H312.163ZM316.318 268.666C316.262 268.666 316.203 268.656 316.147 268.636C315.384 268.38 314.572 268.251 313.736 268.251H312.119C311.548 268.251 311.085 267.788 311.085 267.217V262.289H281.314C281.017 262.289 280.775 262.047 280.775 261.75C280.775 261.452 281.017 261.211 281.314 261.211H311.129C311.699 261.211 312.163 261.674 312.163 262.245V267.173H313.736C314.689 267.173 315.616 267.322 316.491 267.615C316.774 267.71 316.925 268.015 316.833 268.297C316.757 268.524 316.547 268.666 316.32 268.666H316.318Z" fill="black"/>
<path d="M293.326 285.562C297.093 285.551 300.138 282.488 300.127 278.72C300.117 274.951 297.054 271.905 293.287 271.915C289.52 271.926 286.475 274.989 286.486 278.758C286.496 282.526 289.559 285.572 293.326 285.562Z" fill="white"/>
<path d="M293.283 286.128C289.223 286.128 285.921 282.824 285.921 278.764C285.921 274.704 289.223 271.399 293.283 271.399C297.343 271.399 300.645 274.704 300.645 278.764C300.645 282.824 297.343 286.128 293.283 286.128ZM293.283 272.482C289.82 272.482 287.001 275.301 287.001 278.766C287.001 282.232 289.818 285.051 293.283 285.051C296.748 285.051 299.565 282.232 299.565 278.766C299.565 275.301 296.748 272.482 293.283 272.482Z" fill="black"/>
<path d="M294.641 255.926C294.541 255.926 294.441 255.9 294.351 255.841C294.265 255.787 292.263 254.475 291.768 252.064C291.436 250.442 291.863 248.74 293.041 247.001C296.236 242.282 295.192 240.2 294.085 237.995L293.994 237.815C293.86 237.549 293.97 237.225 294.236 237.091C294.504 236.957 294.826 237.066 294.96 237.332L295.05 237.51C296.192 239.785 297.487 242.365 293.936 247.608C292.931 249.091 292.558 250.515 292.824 251.837C293.221 253.8 294.919 254.924 294.936 254.934C295.185 255.097 295.258 255.431 295.094 255.68C294.992 255.841 294.816 255.926 294.641 255.926Z" fill="black"/>
<path d="M355.826 78.1624H334.488C332.144 63.1894 319.191 51.7353 303.559 51.7353C299.538 51.7353 295.699 52.501 292.168 53.8813C284.211 39.5155 268.904 29.7855 251.319 29.7855C225.543 29.7855 204.65 50.6794 204.65 76.4554C204.65 77.0284 204.671 77.5942 204.693 78.1624H202.525C184.536 78.1624 169.953 92.7452 169.953 110.735C169.953 128.724 184.536 143.307 202.525 143.307H355.826C373.815 143.307 388.398 128.724 388.398 110.735C388.398 92.7452 373.815 78.1624 355.826 78.1624Z" fill="white"/>
<path d="M359.313 139.91H206.013C187.755 139.91 172.901 125.057 172.901 106.799C172.901 88.5412 187.755 73.6877 206.013 73.6877H207.62C207.608 73.3 207.595 72.9122 207.595 72.5196C207.595 46.4876 228.775 25.3083 254.807 25.3083C271.811 25.3083 287.513 34.4775 295.899 49.2725C299.474 47.9337 303.223 47.2557 307.046 47.2557C314.684 47.2557 322.071 50.0016 327.845 54.9861C333.442 59.817 337.19 66.4426 338.433 73.6828H359.313C377.571 73.6828 392.424 88.5363 392.424 106.794C392.424 125.052 377.571 139.905 359.313 139.905V139.91ZM206.013 74.7656C188.35 74.7656 173.979 89.1362 173.979 106.799C173.979 124.462 188.35 138.832 206.013 138.832H359.313C376.976 138.832 391.346 124.462 391.346 106.799C391.346 89.1362 376.976 74.7656 359.313 74.7656H337.975C337.709 74.7656 337.482 74.5729 337.441 74.3096C335.085 59.261 322.302 48.3385 307.046 48.3385C303.198 48.3385 299.433 49.0481 295.853 50.4479C295.599 50.5454 295.314 50.443 295.185 50.2064C287.047 35.5139 271.577 26.3886 254.809 26.3886C229.372 26.3886 208.678 47.0826 208.678 72.5196C208.678 73.0415 208.698 73.5609 208.717 74.0779L208.722 74.2071C208.727 74.3535 208.673 74.4949 208.571 74.6022C208.468 74.707 208.329 74.768 208.183 74.768H206.015L206.013 74.7656Z" fill="black"/>
<path d="M248.988 408.191C248.988 408.191 261.493 433.433 275.545 445.565C277.915 447.611 281.605 446.482 282.49 443.48C282.999 441.744 283.502 439.429 283.914 436.347C285.46 424.822 275.093 394.813 275.093 394.813L270.477 393.325C268.858 392.803 267.141 393.793 266.783 395.459L266.3 397.707L260.75 392.82C259.486 391.708 257.545 391.874 256.502 393.196C254.38 395.883 251.088 400.9 248.986 408.191H248.988Z" fill="white"/>
<path d="M278.325 447.14C277.188 447.14 276.079 446.738 275.194 445.972C261.22 433.908 248.632 408.684 248.506 408.43C248.445 408.308 248.432 408.171 248.471 408.04C250.549 400.829 253.756 395.805 256.082 392.859C256.677 392.106 257.533 391.643 258.492 391.555C259.452 391.467 260.386 391.772 261.111 392.411L265.971 396.688L266.261 395.34C266.463 394.398 267.058 393.581 267.892 393.098C268.726 392.616 269.734 392.511 270.648 392.806L275.264 394.293C275.425 394.345 275.554 394.471 275.608 394.63C276.032 395.859 285.999 424.893 284.453 436.413C284.073 439.237 283.59 441.663 283.012 443.626C282.541 445.228 281.302 446.465 279.7 446.938C279.247 447.072 278.786 447.135 278.327 447.135L278.325 447.14ZM249.566 408.137C250.744 410.466 262.723 433.779 275.898 445.155C276.874 445.999 278.149 446.272 279.393 445.906C280.641 445.538 281.605 444.575 281.973 443.326C282.536 441.414 283.009 439.042 283.38 436.274C284.819 425.564 275.669 398.181 274.672 395.242L270.314 393.837C269.687 393.635 269 393.708 268.429 394.037C267.858 394.367 267.451 394.925 267.314 395.569L266.832 397.817C266.793 398.005 266.656 398.156 266.473 398.217C266.29 398.276 266.09 398.237 265.946 398.11L260.396 393.223C259.894 392.781 259.25 392.572 258.587 392.63C257.928 392.689 257.338 393.008 256.928 393.528C254.685 396.371 251.595 401.204 249.566 408.137Z" fill="black"/>
<path d="M279.454 443.075C279.315 443.075 279.176 443.021 279.071 442.917C264.783 428.568 252.822 406.108 252.702 405.884C252.563 405.621 252.663 405.294 252.927 405.155C253.19 405.016 253.517 405.116 253.656 405.379C253.775 405.604 265.663 427.922 279.834 442.156C280.044 442.368 280.044 442.709 279.834 442.919C279.729 443.024 279.59 443.078 279.454 443.078V443.075Z" fill="black"/>
<path d="M273.362 423.366C273.135 423.366 272.923 423.223 272.85 422.996C272.757 422.713 272.911 422.408 273.194 422.313L280.666 419.852C280.948 419.757 281.253 419.913 281.348 420.196C281.441 420.479 281.287 420.784 281.005 420.879L273.533 423.34C273.477 423.359 273.42 423.366 273.364 423.366H273.362Z" fill="black"/>
<path d="M268.449 415.385C268.222 415.385 268.01 415.241 267.937 415.014C267.844 414.731 267.998 414.426 268.28 414.331L277.669 411.239C277.952 411.146 278.257 411.3 278.352 411.583C278.444 411.866 278.291 412.171 278.008 412.266L268.619 415.358C268.563 415.377 268.507 415.385 268.451 415.385H268.449Z" fill="black"/>
<path d="M146.869 218.645C147.83 217.633 216.345 188.034 244.35 181.74C272.355 175.443 282.79 175.385 292.32 191.389C301.85 207.394 246.415 294.725 246.415 294.725L128.487 263.986L146.872 218.645H146.869Z" fill="black"/>
<path d="M213.236 252.373C213.163 252.373 213.087 252.359 213.016 252.327C212.743 252.205 212.621 251.886 212.743 251.613C225.917 222.208 247.667 201.199 247.884 200.99C248.098 200.782 248.44 200.79 248.647 201.007C248.854 201.221 248.847 201.565 248.63 201.77C248.413 201.977 226.812 222.849 213.729 252.054C213.638 252.254 213.441 252.373 213.236 252.373Z" fill="white"/>
<path d="M90.8135 257.763C90.8135 257.763 93.9178 289.594 100.802 296.212C107.686 302.833 190.289 296.212 190.289 296.212C190.289 296.212 196.854 306.967 201.143 335.711C205.433 364.454 210.217 403.15 217.323 412.59L279.176 399.236C279.176 399.236 258.66 276.109 244.411 259.363C230.162 242.617 126.49 239.988 126.49 239.988L90.8135 257.761V257.763Z" fill="black"/>
<path d="M251.566 275.009C251.342 275.009 251.134 274.87 251.056 274.645C248.464 267.193 246.089 262.17 244.002 259.714C239.176 254.042 217.794 248.874 182.171 244.768C181.876 244.734 181.661 244.465 181.695 244.17C181.729 243.873 182.003 243.663 182.293 243.695C218.706 247.892 239.746 253.047 244.823 259.014C246.999 261.572 249.44 266.71 252.076 274.289C252.173 274.572 252.025 274.88 251.744 274.977C251.686 274.997 251.625 275.006 251.566 275.006V275.009Z" fill="white"/>
<path d="M205.291 153.552C203.096 151.947 200.006 152.505 198.514 154.778C190.806 166.527 169.482 199.07 169.231 199.875L179.917 201.382L206.488 159.958C207.844 157.844 207.32 155.037 205.291 153.554V153.552Z" fill="white"/>
<path d="M179.917 201.922C179.893 201.922 179.866 201.922 179.842 201.917L169.156 200.41C169 200.388 168.858 200.297 168.775 200.163C168.69 200.029 168.668 199.866 168.717 199.715C168.963 198.932 184.812 174.685 198.063 154.483C198.865 153.259 200.099 152.442 201.54 152.181C202.982 151.92 204.428 152.252 205.61 153.118C207.866 154.766 208.451 157.897 206.942 160.248L180.371 201.673C180.271 201.829 180.098 201.922 179.917 201.922ZM170.095 199.451L179.649 200.797L206.032 159.663C207.232 157.793 206.766 155.298 204.971 153.986C204.03 153.298 202.879 153.032 201.731 153.24C200.584 153.447 199.604 154.098 198.963 155.071C182.666 179.913 172.15 196.079 170.092 199.446L170.095 199.451Z" fill="black"/>
<path d="M60.0287 251.637C60.0287 251.637 48.9306 236.125 53.4737 201.38C58.0193 166.635 69.1369 148.599 80.7714 144.478C92.4035 140.357 140.254 147.882 143.99 206.26L60.0287 251.637Z" fill="white"/>
<path d="M60.0286 252.179C59.8603 252.179 59.6945 252.098 59.5896 251.952C59.4775 251.796 48.4184 235.867 52.9396 201.309C57.0852 169.625 67.1639 148.726 80.5909 143.968C86.8093 141.766 102.628 142.876 116.836 152.25C128.38 159.868 142.556 175.414 144.528 206.226C144.543 206.435 144.431 206.635 144.246 206.735L60.2846 252.113C60.2042 252.157 60.1139 252.179 60.0286 252.179ZM87.7384 144.068C84.9267 144.068 82.5905 144.407 80.9518 144.988C75.0016 147.095 69.4684 152.872 64.9448 161.692C59.8359 171.659 56.1561 185.034 54.0101 201.451C49.9352 232.599 58.5801 248.299 60.209 250.928L143.429 205.953C141.402 175.814 127.539 160.609 116.241 153.154C106.13 146.482 95.2395 144.071 87.7384 144.071V144.068Z" fill="black"/>
<path d="M93.4644 227.083C93.184 227.083 92.9474 226.866 92.9255 226.581L90.621 193.996C90.599 193.698 90.8234 193.44 91.1209 193.418C91.4184 193.396 91.6769 193.62 91.6964 193.918L94.0009 226.503C94.0228 226.8 93.7985 227.059 93.501 227.08C93.4888 227.08 93.4742 227.08 93.462 227.08L93.4644 227.083Z" fill="black"/>
<path d="M55.9882 242.702C55.9882 242.702 60.0192 271.883 100.802 262.116C141.583 252.35 162.845 214.439 162.845 214.439C162.845 214.439 186.59 209.364 185.783 193.957C185.783 193.957 177.835 196.089 171.075 193.957C164.316 191.826 157.002 194.006 154.188 196.645C134.906 214.729 73.312 220.153 55.9882 242.702Z" fill="white"/>
<path d="M85.3948 264.662C77.8059 264.662 71.4289 262.918 66.3347 259.438C56.9705 253.042 55.5122 243.19 55.4537 242.773C55.4341 242.629 55.4732 242.485 55.561 242.371C65.0934 229.963 87.6675 222.754 109.498 215.782C127.817 209.932 145.121 204.406 153.819 196.247C157.004 193.26 164.569 191.338 171.238 193.44C177.771 195.498 185.565 193.455 185.643 193.433C185.802 193.391 185.967 193.423 186.102 193.518C186.233 193.613 186.314 193.764 186.324 193.928C187.109 208.959 165.839 214.307 163.196 214.912C162.34 216.378 156.997 225.237 147.506 234.989C137.956 244.802 122.123 257.563 100.931 262.638C95.2979 263.986 90.1135 264.659 85.3972 264.659L85.3948 264.662ZM56.5608 242.844C56.8315 244.321 58.7384 252.952 66.959 258.558C74.9576 264.011 86.3019 265.03 100.675 261.589C140.763 251.988 162.159 214.551 162.372 214.173C162.447 214.039 162.579 213.941 162.73 213.91C162.959 213.861 185.333 208.901 185.26 194.637C183.19 195.103 176.686 196.291 170.912 194.472C164.259 192.374 157.138 194.615 154.556 197.037C145.679 205.362 128.263 210.925 109.825 216.812C88.2626 223.698 65.9713 230.816 56.5583 242.844H56.5608Z" fill="black"/>
<path d="M171.26 201.083C170.602 201.083 169.922 201.068 169.21 201.041C168.912 201.029 168.68 200.778 168.693 200.48C168.705 200.183 168.936 199.951 169.253 199.963C181.154 200.444 185.214 196.503 185.253 196.464C185.463 196.254 185.804 196.252 186.016 196.459C186.229 196.669 186.233 197.008 186.026 197.22C185.863 197.386 182.124 201.085 171.26 201.085V201.083Z" fill="black"/>
<path d="M170.024 206.728C169.76 206.728 169.495 206.728 169.221 206.721C168.924 206.716 168.685 206.47 168.692 206.17C168.697 205.872 168.951 205.636 169.243 205.64C179.617 205.831 182.965 202.153 182.997 202.117C183.195 201.892 183.534 201.868 183.76 202.065C183.985 202.261 184.009 202.602 183.812 202.829C183.67 202.992 180.283 206.73 170.026 206.73L170.024 206.728Z" fill="black"/>
<path d="M99.317 117.438C99.0098 117.999 85.9657 140.295 85.9657 140.295L76.9697 146.341C80.2887 148.862 86.1511 152.656 94.3496 154.832C102.714 157.048 109.815 156.597 113.971 156.022C113.61 154.885 113.002 153.405 111.949 151.859C110.288 149.42 108.308 147.97 107.043 147.194C109.727 142.583 112.412 137.974 115.097 133.362L99.317 117.438Z" fill="white"/>
<path d="M107.086 157.039C102.753 157.039 98.4463 156.476 94.2105 155.354C87.8189 153.659 81.9077 150.772 76.6404 146.772C76.5014 146.668 76.4233 146.502 76.4282 146.326C76.4331 146.153 76.5233 145.99 76.6672 145.895L85.5607 139.918C86.5411 138.242 98.5536 117.707 98.8438 117.18C98.9267 117.031 99.073 116.929 99.2413 116.904C99.4096 116.88 99.5803 116.939 99.6997 117.058L115.48 132.982C115.653 133.155 115.685 133.424 115.563 133.633L107.772 147.014C109.613 148.223 111.168 149.75 112.395 151.552C113.295 152.874 113.997 154.32 114.485 155.854C114.534 156.005 114.512 156.171 114.426 156.305C114.341 156.439 114.202 156.529 114.044 156.551C111.722 156.873 109.4 157.034 107.084 157.034L107.086 157.039ZM77.9011 146.365C82.9002 150.045 88.4773 152.718 94.4885 154.31C100.636 155.939 106.942 156.363 113.249 155.571C112.81 154.364 112.224 153.22 111.505 152.162C110.266 150.34 108.669 148.823 106.762 147.653C106.511 147.499 106.43 147.175 106.579 146.921L114.424 133.448L99.4339 118.321C97.3367 121.93 86.919 139.74 86.4338 140.569C86.3923 140.639 86.3362 140.698 86.2679 140.744L77.9035 146.365H77.9011Z" fill="black"/>
<path d="M138.817 103.195C132.803 98.2569 125.714 103.412 118.693 97.357C115.477 94.5819 115.182 91.9629 111.319 90.4436C108.761 89.4389 104.211 88.7463 101.182 91.0581C97.3239 94.0015 100.162 98.5885 97.0337 108.877C94.8366 116.103 91.7907 119.246 93.5002 121.78C95.2292 124.343 99.248 122.472 101.348 125.13C104.064 128.569 99.109 133.951 100.653 138.808C101.713 142.147 106.788 146.914 119.544 148.509C120.249 146.463 121.942 142.413 123.044 138.452C126.494 126.057 124.614 121.314 127.716 119.712C132.469 117.258 138.202 124.835 141.733 122.548C145.401 120.173 144.989 108.262 138.814 103.193L138.817 103.195Z" fill="black"/>
<path d="M113.894 109.262L115.097 112.903C115.097 112.903 110.427 124.357 109.59 128.683C108.756 133.009 121.959 136.609 121.959 136.609L124.032 135.072L127.719 135.994C127.719 135.994 127.607 123.386 130.984 114.981C130.984 114.981 124.751 107.418 113.892 109.262H113.894Z" fill="white"/>
<path d="M114.356 109.54C114.834 110.64 115.258 111.647 115.609 112.735C115.65 112.861 115.643 112.993 115.597 113.108C114.592 115.59 113.626 118.095 112.7 120.609C111.795 123.123 110.876 125.662 110.249 128.212L110.142 128.688C110.1 128.854 110.115 128.949 110.093 129.08C110.115 129.329 110.149 129.583 110.278 129.832C110.507 130.331 110.92 130.8 111.388 131.214C112.336 132.043 113.487 132.704 114.663 133.292C117.028 134.45 119.562 135.355 122.101 136.089L121.637 136.177L123.708 134.64L123.742 134.618C123.869 134.531 124.025 134.511 124.161 134.55L127.807 135.631L127.341 135.999C127.329 134.199 127.395 132.416 127.504 130.629C127.617 128.844 127.785 127.059 128.009 125.281C128.248 123.503 128.548 121.733 128.931 119.975C129.338 118.221 129.833 116.483 130.48 114.783L130.565 115.327C129.592 114.237 128.375 113.242 127.1 112.427C125.819 111.603 124.439 110.93 122.993 110.459C121.552 109.986 120.055 109.652 118.533 109.579C117.774 109.491 117.014 109.542 116.253 109.555C115.833 109.55 115.597 109.618 115.294 109.606C115.004 109.606 114.697 109.567 114.353 109.54H114.356ZM113.429 108.984C113.861 108.862 114.331 108.733 114.819 108.638C115.294 108.547 115.833 108.465 116.199 108.477C117.004 108.462 117.809 108.411 118.611 108.501C120.22 108.582 121.813 108.933 123.339 109.435C124.873 109.935 126.334 110.645 127.685 111.518C129.046 112.396 130.284 113.39 131.399 114.639C131.528 114.783 131.557 114.98 131.496 115.149L131.484 115.183C130.838 116.805 130.328 118.49 129.904 120.199C129.502 121.916 129.18 123.655 128.916 125.403C128.668 127.156 128.475 128.917 128.336 130.685C128.199 132.451 128.107 134.228 128.092 135.991C128.092 136.201 127.919 136.372 127.709 136.369C127.68 136.369 127.651 136.365 127.624 136.36L123.898 135.596L124.351 135.506L122.279 137.042L122.271 137.047C122.135 137.147 121.964 137.172 121.813 137.13C119.191 136.372 116.643 135.465 114.18 134.26C112.956 133.645 111.749 132.965 110.671 132.024C110.139 131.548 109.627 131.002 109.291 130.278C109.113 129.924 109.03 129.505 109.01 129.085C109.03 128.885 109.039 128.639 109.081 128.478L109.195 127.971C109.851 125.301 110.773 122.777 111.685 120.238C112.617 117.709 113.585 115.2 114.595 112.7L114.582 113.073C114.131 111.732 113.753 110.311 113.429 108.984Z" fill="black"/>
<path d="M109.432 119.377C109.432 119.377 110.588 111.006 106.667 111.286C102.746 111.566 101.707 120.814 109.432 119.377Z" fill="white"/>
<path d="M107.884 120.07C105.852 120.07 104.709 119.231 104.08 118.436C102.836 116.866 102.946 114.656 103.604 113.159C104.231 111.737 105.362 110.835 106.63 110.745C107.494 110.684 108.215 110.959 108.781 111.567C110.742 113.661 110 119.214 109.969 119.451C109.937 119.682 109.762 119.865 109.532 119.907C108.928 120.019 108.381 120.07 107.886 120.07H107.884ZM106.855 111.818C106.806 111.818 106.757 111.818 106.706 111.823C105.83 111.886 105.06 112.53 104.592 113.593C104.062 114.793 103.963 116.546 104.926 117.763C105.728 118.775 107.111 119.168 108.945 118.907C109.125 117.205 109.223 113.615 107.991 112.301C107.686 111.974 107.313 111.813 106.855 111.813V111.818Z" fill="black"/>
<path d="M138.717 356.002C136.096 350.608 135.847 345.175 138.717 339.683L136.657 337.213L80.3105 339.066L82.2517 356.966L136.793 357.595L138.715 356.002H138.717Z" fill="white"/>
<path d="M136.796 358.134H136.788L82.2466 357.505C81.9735 357.502 81.7467 357.295 81.715 357.022L79.7739 339.122C79.7568 338.974 79.8056 338.822 79.9031 338.71C80.0007 338.596 80.1421 338.53 80.2933 338.525L136.64 336.672C136.803 336.667 136.966 336.737 137.071 336.867L139.132 339.337C139.271 339.505 139.298 339.739 139.195 339.932C136.515 345.058 136.518 350.237 139.203 355.763C139.312 355.988 139.254 356.256 139.061 356.414L137.139 358.007C137.042 358.087 136.92 358.131 136.796 358.131V358.134ZM82.7392 356.432L136.603 357.053L138.049 355.856C135.481 350.33 135.489 344.916 138.073 339.756L136.41 337.762L80.9103 339.588L82.7392 356.432Z" fill="black"/>
<path d="M35.1815 335.243H139.761C140.983 335.243 141.975 336.233 141.975 337.457C141.975 338.681 140.985 339.671 139.761 339.671H91.6814C88.1601 339.671 85.307 342.524 85.307 346.046V349.63C85.307 353.152 88.1601 356.005 91.6814 356.005H139.761C140.983 356.005 141.975 356.995 141.975 358.219C141.975 359.443 140.985 360.433 139.761 360.433H35.1815C28.69 360.433 23.4275 355.171 23.4275 348.679V347.002C23.4275 340.51 28.69 335.247 35.1815 335.247V335.243Z" fill="white"/>
<path d="M139.764 360.969H35.1819C28.4026 360.969 22.8889 355.453 22.8889 348.676V346.999C22.8889 340.219 28.405 334.706 35.1819 334.706H139.761C141.28 334.706 142.514 335.942 142.514 337.459C142.514 338.976 141.278 340.212 139.761 340.212H91.6818C88.4653 340.212 85.8462 342.829 85.8462 346.047V349.632C85.8462 352.849 88.4628 355.468 91.6818 355.468H139.761C141.28 355.468 142.514 356.704 142.514 358.221C142.514 359.738 141.278 360.974 139.761 360.974L139.764 360.969ZM35.1843 335.783C29 335.783 23.9717 340.814 23.9717 346.999V348.676C23.9717 354.861 29.0025 359.891 35.1843 359.891H139.764C140.685 359.891 141.437 359.14 141.437 358.219C141.437 357.297 140.685 356.546 139.764 356.546H91.6842C87.8703 356.546 84.7684 353.444 84.7684 349.63V346.045C84.7684 342.231 87.8703 339.129 91.6842 339.129H139.764C140.685 339.129 141.437 338.378 141.437 337.456C141.437 336.535 140.685 335.783 139.764 335.783H35.1819H35.1843Z" fill="black"/>
<path d="M136.654 347.623H104.921C104.623 347.623 104.382 347.382 104.382 347.084C104.382 346.787 104.623 346.545 104.921 346.545H136.654C136.952 346.545 137.193 346.787 137.193 347.084C137.193 347.382 136.952 347.623 136.654 347.623Z" fill="black"/>
<path d="M136.854 352.4H111.064C110.766 352.4 110.525 352.159 110.525 351.861C110.525 351.564 110.766 351.322 111.064 351.322H136.854C137.152 351.322 137.393 351.564 137.393 351.861C137.393 352.159 137.152 352.4 136.854 352.4Z" fill="black"/>
<path d="M142.77 386.455H48.3062V363.313H142.768C139.978 371.131 139.902 378.847 142.768 386.455H142.77Z" fill="white"/>
<path d="M142.77 386.995H48.3061C48.0086 386.995 47.7672 386.753 47.7672 386.456V363.313C47.7672 363.016 48.0086 362.774 48.3061 362.774H142.77C142.946 362.774 143.109 362.86 143.212 363.004C143.312 363.148 143.338 363.33 143.28 363.496C140.512 371.258 140.51 378.92 143.277 386.268C143.341 386.434 143.316 386.619 143.216 386.765C143.116 386.912 142.951 386.997 142.773 386.997L142.77 386.995ZM48.8475 385.914H142C139.49 378.774 139.493 371.358 142.012 363.852H48.8475V385.914Z" fill="black"/>
<path d="M59.68 364.455H143.421C144.429 364.455 145.246 363.638 145.246 362.631C145.246 361.624 144.429 360.807 143.421 360.807H34.7526C30.3266 360.807 26.7394 364.394 26.7394 368.82V381.418C26.7394 385.844 30.3266 389.431 34.7526 389.431H143.419C144.426 389.431 145.243 388.614 145.243 387.607C145.243 386.6 144.426 385.783 143.419 385.783H59.68C56.5537 385.783 54.02 383.249 54.02 380.123V370.115C54.02 366.988 56.5537 364.455 59.68 364.455Z" fill="white"/>
<path d="M143.419 389.97H34.7526C30.0364 389.97 26.2004 386.134 26.2004 381.418V368.82C26.2004 364.104 30.0364 360.268 34.7526 360.268H143.419C144.721 360.268 145.782 361.328 145.782 362.631C145.782 363.933 144.721 364.994 143.419 364.994H59.68C56.8561 364.994 54.5589 367.291 54.5589 370.115V380.123C54.5589 382.947 56.8561 385.244 59.68 385.244H143.421C144.724 385.244 145.784 386.305 145.784 387.607C145.784 388.909 144.724 389.97 143.421 389.97H143.419ZM34.7526 361.346C30.6314 361.346 27.2783 364.699 27.2783 368.82V381.418C27.2783 385.539 30.6314 388.892 34.7526 388.892H143.419C144.126 388.892 144.702 388.316 144.702 387.609C144.702 386.902 144.126 386.327 143.419 386.327H59.68C56.261 386.327 53.4786 383.544 53.4786 380.125V370.117C53.4786 366.698 56.261 363.916 59.68 363.916H143.421C144.129 363.916 144.704 363.34 144.704 362.633C144.704 361.926 144.129 361.35 143.421 361.35H34.7526V361.346Z" fill="black"/>
<path d="M141.1 369.347H127.151C126.854 369.347 126.612 369.105 126.612 368.808C126.612 368.51 126.854 368.269 127.151 368.269H141.1C141.398 368.269 141.639 368.51 141.639 368.808C141.639 369.105 141.398 369.347 141.1 369.347Z" fill="black"/>
<path d="M140.805 372.436H97.8465C97.549 372.436 97.3076 372.195 97.3076 371.897C97.3076 371.6 97.549 371.359 97.8465 371.359H140.805C141.102 371.359 141.344 371.6 141.344 371.897C141.344 372.195 141.102 372.436 140.805 372.436Z" fill="black"/>
<path d="M140.805 378.884H103.843C103.546 378.884 103.304 378.642 103.304 378.345C103.304 378.047 103.546 377.806 103.843 377.806H140.805C141.102 377.806 141.344 378.047 141.344 378.345C141.344 378.642 141.102 378.884 140.805 378.884Z" fill="black"/>
<path d="M27.1123 413.051C30.0728 406.957 30.3556 400.814 27.1123 394.61L29.4412 391.818L93.1106 393.913L90.9158 414.138L29.2851 414.848L27.1123 413.051Z" fill="white"/>
<path d="M29.2826 415.389C29.1558 415.389 29.0338 415.345 28.9387 415.265L26.7659 413.468C26.5733 413.309 26.5148 413.038 26.6245 412.817C29.6703 406.549 29.6703 400.677 26.6318 394.864C26.5318 394.671 26.5562 394.434 26.6952 394.269L29.0241 391.476C29.1314 391.35 29.2923 391.279 29.4557 391.281L93.1251 393.376C93.2763 393.381 93.4177 393.449 93.5153 393.561C93.6128 393.676 93.6616 393.825 93.6445 393.973L91.4498 414.199C91.4205 414.47 91.1913 414.677 90.9182 414.682L29.2875 415.392H29.2801L29.2826 415.389ZM27.7804 412.904L29.4752 414.309L90.4305 413.607L92.5106 394.437L29.6849 392.371L27.756 394.686C30.6945 400.524 30.7043 406.649 27.7804 412.907V412.904Z" fill="black"/>
<path d="M144.104 389.592H25.9296C24.5494 389.592 23.4276 390.711 23.4276 392.094C23.4276 393.476 24.5469 394.596 25.9296 394.596H80.2592C84.2365 394.596 87.4628 397.822 87.4628 401.799V405.85C87.4628 409.827 84.2365 413.053 80.2592 413.053H25.9296C24.5494 413.053 23.4276 414.173 23.4276 415.555C23.4276 416.938 24.5469 418.057 25.9296 418.057H144.104C151.439 418.057 157.387 412.11 157.387 404.774V402.877C157.387 395.542 151.439 389.594 144.104 389.594V389.592Z" fill="white"/>
<path d="M144.104 418.594H25.9298C24.2521 418.594 22.8889 417.231 22.8889 415.553C22.8889 413.875 24.2521 412.512 25.9298 412.512H80.2594C83.9344 412.512 86.9217 409.522 86.9217 405.85V401.799C86.9217 398.124 83.9319 395.137 80.2594 395.137H25.9298C24.2521 395.137 22.8889 393.774 22.8889 392.096C22.8889 390.418 24.2521 389.055 25.9298 389.055H144.104C151.725 389.055 157.926 395.256 157.926 402.877V404.774C157.926 412.395 151.725 418.596 144.104 418.596V418.594ZM25.9298 413.592C24.8496 413.592 23.9692 414.473 23.9692 415.553C23.9692 416.633 24.8496 417.514 25.9298 417.514H144.104C151.13 417.514 156.846 411.797 156.846 404.772V402.875C156.846 395.849 151.13 390.133 144.104 390.133H25.9298C24.8496 390.133 23.9692 391.013 23.9692 392.094C23.9692 393.174 24.8496 394.054 25.9298 394.054H80.2594C84.5294 394.054 88.002 397.527 88.002 401.797V405.847C88.002 410.117 84.5294 413.59 80.2594 413.59H25.9298V413.592Z" fill="black"/>
<path d="M58.5874 403.511H29.4413C29.1438 403.511 28.9023 403.27 28.9023 402.972C28.9023 402.675 29.1438 402.433 29.4413 402.433H58.5874C58.8849 402.433 59.1263 402.675 59.1263 402.972C59.1263 403.27 58.8849 403.511 58.5874 403.511Z" fill="black"/>
<path d="M64.8424 408.913H29.2169C28.9194 408.913 28.678 408.671 28.678 408.374C28.678 408.076 28.9194 407.835 29.2169 407.835H64.8424C65.1399 407.835 65.3813 408.076 65.3813 408.374C65.3813 408.671 65.1399 408.913 64.8424 408.913Z" fill="black"/>
<path d="M325.56 305.896C331.103 309.451 367.56 330.891 411.238 310.153C411.397 310.078 411.523 309.956 411.599 309.797C413.284 306.317 431.874 265.41 405.127 206.979C404.92 206.523 404.342 206.374 403.952 206.679C399.05 210.515 371.394 231.355 349.456 230.818C348.939 230.806 348.554 231.279 348.691 231.782C350.271 237.566 356.379 267.632 325.387 304.749C325.09 305.105 325.168 305.642 325.56 305.896Z" fill="white"/>
<path d="M372.643 319.634C366.466 319.634 360.242 318.978 353.987 317.662C338.685 314.443 328.136 308.188 325.268 306.349C324.953 306.146 324.739 305.817 324.683 305.447C324.624 305.073 324.732 304.693 324.973 304.403C355.814 267.465 349.708 237.546 348.169 231.923C348.059 231.52 348.142 231.106 348.398 230.779C348.657 230.45 349.052 230.267 349.469 230.277C371.148 230.816 398.375 210.358 403.618 206.252C403.932 206.005 404.335 205.92 404.725 206.015C405.122 206.113 405.447 206.381 405.617 206.752C416.847 231.284 421.537 255.604 419.561 279.039C418.052 296.953 413.067 308 412.085 310.031C411.955 310.299 411.743 310.509 411.47 310.641C398.855 316.63 385.857 319.634 372.645 319.634H372.643ZM349.435 231.357C349.332 231.357 349.274 231.413 349.247 231.445C349.218 231.484 349.186 231.547 349.21 231.637C350.773 237.351 356.987 267.746 325.8 305.095C325.739 305.166 325.741 305.244 325.746 305.283C325.751 305.322 325.773 305.393 325.848 305.439C328.677 307.254 339.083 313.423 354.207 316.603C373.599 320.683 392.708 318.349 411.002 309.663C411.051 309.639 411.087 309.604 411.109 309.56C412.077 307.558 416.989 296.673 418.484 278.946C420.444 255.699 415.784 231.559 404.635 207.2C404.591 207.103 404.505 207.071 404.471 207.064C404.432 207.054 404.357 207.047 404.286 207.103C399.06 211.195 372.172 231.364 350.298 231.367C350.01 231.367 349.73 231.364 349.444 231.357C349.444 231.357 349.439 231.357 349.437 231.357H349.435Z" fill="black"/>
<path d="M357.574 240.912C357.323 240.912 357.099 240.736 357.048 240.483C356.987 240.19 357.172 239.905 357.465 239.844C357.699 239.795 381.126 234.769 398.187 222.11C398.426 221.932 398.765 221.984 398.943 222.223C399.121 222.462 399.07 222.801 398.831 222.979C381.577 235.784 357.926 240.853 357.687 240.902C357.65 240.91 357.611 240.914 357.574 240.914V240.912Z" fill="black"/>
<path d="M374.427 247.004C374.181 247.004 373.959 246.833 373.901 246.584C373.835 246.294 374.018 246.004 374.308 245.938C385.462 243.404 395.265 239.273 403.444 233.66C403.691 233.491 404.027 233.552 404.195 233.799C404.364 234.045 404.3 234.381 404.056 234.55C395.765 240.241 385.835 244.426 374.547 246.991C374.505 247.001 374.466 247.006 374.427 247.006V247.004Z" fill="black"/>
<path d="M357.37 249.345C357.074 249.345 356.833 249.108 356.831 248.811C356.826 248.513 357.065 248.267 357.362 248.265C357.399 248.265 360.979 248.206 366.451 247.406C366.748 247.365 367.019 247.567 367.063 247.862C367.107 248.157 366.902 248.433 366.607 248.474C361.057 249.286 357.413 249.345 357.377 249.345H357.37Z" fill="black"/>
<path d="M362.556 258.714C358.957 258.714 356.86 258.477 356.789 258.467C356.494 258.431 356.282 258.162 356.319 257.867C356.355 257.572 356.621 257.36 356.918 257.397C357.145 257.424 379.992 259.989 405.586 247.672C405.854 247.542 406.178 247.655 406.307 247.925C406.437 248.193 406.324 248.518 406.056 248.647C387.872 257.399 371.045 258.716 362.556 258.716V258.714Z" fill="black"/>
<path d="M369.533 268.514C360.284 268.514 354.495 267.258 354.378 267.231C354.087 267.165 353.904 266.878 353.97 266.585C354.036 266.295 354.324 266.112 354.617 266.178C354.856 266.231 378.747 271.399 407.378 260.396C407.656 260.288 407.968 260.427 408.076 260.705C408.183 260.983 408.044 261.296 407.766 261.403C392.903 267.114 379.295 268.511 369.536 268.511L369.533 268.514Z" fill="black"/>
<path d="M390.744 279.786C390.478 279.786 390.249 279.591 390.21 279.32C390.168 279.025 390.373 278.752 390.668 278.71C396.426 277.901 401.91 276.479 406.97 274.492C407.248 274.382 407.561 274.518 407.67 274.796C407.78 275.074 407.643 275.387 407.365 275.496C402.227 277.516 396.66 278.959 390.82 279.781C390.795 279.783 390.768 279.786 390.744 279.786Z" fill="black"/>
<path d="M378.639 280.613C363.32 280.613 351.602 276.845 351.481 276.804C351.198 276.711 351.042 276.406 351.134 276.123C351.227 275.84 351.534 275.687 351.815 275.777C351.941 275.819 364.822 279.954 381.188 279.496C381.5 279.489 381.734 279.723 381.744 280.02C381.751 280.318 381.517 280.566 381.219 280.576C380.349 280.601 379.488 280.613 378.639 280.613Z" fill="black"/>
<path d="M16.6314 84.7443L38.1057 105.494C40.0858 107.406 43.2536 107.331 45.124 105.311C51.6058 98.3224 67.0031 83.2567 86.2973 74.7826C89.0822 73.5608 90.1161 70.1444 88.4579 67.5936L69.3539 38.2304C67.92 36.0259 65.0083 35.3309 62.7429 36.6648C55.5173 40.9251 39.1909 52.2255 16.3656 77.9381C14.6171 79.9085 14.7366 82.9129 16.6289 84.7418L16.6314 84.7443Z" fill="white"/>
<path d="M41.5246 107.418C40.1004 107.418 38.7592 106.877 37.7301 105.882L16.2558 85.1321C14.144 83.091 14.0147 79.7745 15.9632 77.5822C38.5885 52.0964 54.8125 40.7179 62.4697 36.2016C64.9863 34.7189 68.2077 35.4797 69.8074 37.9379L88.9114 67.301C89.7844 68.6447 90.0234 70.2956 89.565 71.8295C89.1041 73.3731 87.9921 74.629 86.5143 75.2777C67.0201 83.8396 51.3521 99.3905 45.519 105.68C44.5167 106.76 43.1535 107.377 41.6782 107.418C41.627 107.418 41.5758 107.418 41.5246 107.418ZM17.0069 84.3542L38.4812 105.104C39.3371 105.931 40.4589 106.365 41.6489 106.336C42.8316 106.304 43.9241 105.809 44.7264 104.943C50.6035 98.6053 66.3983 82.93 86.0802 74.2876C87.2678 73.7658 88.1603 72.7586 88.5286 71.5198C88.8968 70.2908 88.7041 68.9666 88.0043 67.8887L68.9003 38.5256C67.6176 36.5552 65.0351 35.9431 63.0184 37.1307C55.4173 41.6128 39.2981 52.9206 16.7728 78.2967C15.2096 80.0549 15.3145 82.7179 17.0093 84.3542H17.0069Z" fill="black"/>
<path d="M2.23368 111.814L23.708 132.564C25.6881 134.476 28.8559 134.4 30.7263 132.381C37.2081 125.392 52.6054 110.327 71.8996 101.852C74.6845 100.631 75.7184 97.2142 74.0602 94.6634L54.9562 65.3002C53.5223 63.0957 50.6106 62.4007 48.3451 63.7347C41.1196 67.9949 24.7932 79.2954 1.96787 105.008C0.219392 106.978 0.338884 109.983 2.23124 111.812L2.23368 111.814Z" fill="white"/>
<path d="M27.1273 134.49C25.7032 134.49 24.362 133.948 23.3329 132.953L1.86101 112.201C-0.250814 110.16 -0.38006 106.843 1.56838 104.651C24.1937 79.1628 40.4177 67.7843 48.0749 63.2705C50.5915 61.7878 53.8129 62.5487 55.4127 65.0068L74.5166 94.3699C75.3897 95.7136 75.6286 97.3645 75.1702 98.8984C74.7093 100.442 73.5973 101.698 72.1195 102.347C52.6253 110.909 36.9573 126.459 31.1242 132.749C30.1219 133.829 28.7588 134.446 27.2834 134.487C27.2322 134.487 27.181 134.487 27.1298 134.487L27.1273 134.49ZM2.60966 111.425L24.084 132.176C24.9399 133.002 26.0617 133.436 27.2541 133.407C28.4369 133.375 29.5294 132.88 30.3317 132.015C36.2087 125.677 52.0035 110.001 71.6854 101.359C72.873 100.837 73.7656 99.8275 74.1362 98.5912C74.5044 97.3621 74.3118 96.0379 73.6119 94.9601L54.5079 65.5969C53.2252 63.6265 50.6428 63.0144 48.6236 64.202C41.0225 68.6842 24.9033 79.992 2.378 105.368C0.814853 107.126 0.919713 109.787 2.61454 111.425H2.60966Z" fill="black"/>
<path d="M6.76477 109.987C6.5014 109.987 6.27217 109.795 6.23071 109.529C6.18682 109.234 6.38922 108.958 6.68429 108.914L33.0894 104.927C37.752 104.223 41.566 101.028 43.0462 96.5897L51.8203 70.2601C51.9154 69.9773 52.2203 69.8236 52.5031 69.9187C52.786 70.0138 52.9396 70.3187 52.8445 70.6015L44.0705 96.9311C42.461 101.757 38.3154 105.232 33.2504 105.995L6.84524 109.982C6.81841 109.987 6.79159 109.99 6.76477 109.99V109.987Z" fill="black"/>
<path d="M397.089 319.455L361.934 299.095C360.498 298.263 358.581 298.707 357.652 300.09L313.506 365.822C312.58 367.205 312.992 368.997 314.428 369.831L349.583 390.191C351.019 391.023 352.936 390.579 353.865 389.196L398.011 323.464C398.938 322.081 398.526 320.289 397.089 319.455Z" fill="white"/>
<path d="M351.156 391.144C350.522 391.144 349.883 390.986 349.312 390.657L314.157 370.297C313.333 369.819 312.762 369.058 312.555 368.156C312.345 367.251 312.524 366.315 313.058 365.52L357.204 299.787C358.286 298.178 360.527 297.656 362.205 298.626L397.36 318.986C398.184 319.464 398.755 320.225 398.962 321.127C399.172 322.032 398.994 322.968 398.46 323.763L354.314 389.496C353.602 390.557 352.382 391.144 351.156 391.144ZM360.352 299.214C359.479 299.214 358.611 299.633 358.101 300.389L313.955 366.122C313.589 366.666 313.467 367.302 313.609 367.912C313.75 368.521 314.138 369.036 314.701 369.36L349.856 389.72C351.051 390.413 352.648 390.04 353.419 388.891L397.565 323.159C397.931 322.615 398.052 321.978 397.911 321.369C397.77 320.759 397.382 320.245 396.821 319.92L361.666 299.56C361.259 299.324 360.805 299.212 360.354 299.212L360.352 299.214Z" fill="black"/>
<path d="M369.316 303.369L368.375 304.771C367.373 306.261 367.819 308.198 369.37 309.095L384.148 317.655C385.699 318.552 387.767 318.072 388.766 316.582L389.708 315.179L369.314 303.369H369.316Z" fill="black"/>
<path d="M377.607 312.109C377.044 311.783 376.883 311.08 377.246 310.536C377.61 309.995 378.363 309.819 378.927 310.146C379.49 310.473 379.651 311.175 379.287 311.719C378.924 312.26 378.171 312.436 377.607 312.109Z" fill="white"/>
<path d="M388.996 329.452L355.826 310.241L357.767 307.351L390.937 326.56L388.996 329.452Z" fill="black"/>
<path d="M374.661 351.334C374.568 351.334 374.476 351.309 374.39 351.261L341.22 332.052C341.091 331.976 340.999 331.852 340.964 331.705C340.93 331.559 340.96 331.405 341.042 331.284L353.957 312.053C354.116 311.816 354.43 311.743 354.677 311.887L387.846 331.096C387.976 331.171 388.068 331.296 388.103 331.442C388.137 331.588 388.107 331.742 388.025 331.864L375.11 351.095C375.007 351.248 374.837 351.334 374.661 351.334ZM342.262 331.405L374.495 350.073L386.808 331.74L354.574 313.072L342.262 331.405Z" fill="black"/>
<path d="M388.583 327.206C388.325 327.592 387.793 327.713 387.393 327.482C386.993 327.25 386.879 326.75 387.137 326.367C387.396 325.982 387.927 325.86 388.327 326.092C388.727 326.324 388.842 326.823 388.583 327.206Z" fill="white"/>
<path d="M365.719 364.646C365.627 364.646 365.534 364.622 365.449 364.573L332.279 345.364C332.149 345.289 332.057 345.164 332.023 345.018C331.989 344.871 332.018 344.718 332.101 344.596L340.153 332.608C340.311 332.371 340.626 332.298 340.872 332.442L374.042 351.651C374.171 351.726 374.264 351.851 374.298 351.997C374.332 352.143 374.303 352.297 374.22 352.419L366.168 364.407C366.066 364.561 365.895 364.646 365.719 364.646ZM333.32 344.718L365.553 363.385L373.001 352.295L340.767 333.627L333.32 344.718Z" fill="black"/>
<path d="M356.492 378.388C356.399 378.388 356.306 378.364 356.221 378.315L323.051 359.106C322.922 359.03 322.829 358.906 322.795 358.76C322.761 358.613 322.79 358.46 322.873 358.338L330.925 346.35C331.084 346.113 331.398 346.04 331.645 346.184L364.815 365.393C364.944 365.468 365.036 365.593 365.071 365.739C365.105 365.885 365.075 366.039 364.993 366.161L356.94 378.149C356.838 378.303 356.667 378.388 356.492 378.388ZM324.092 358.46L356.326 377.127L363.773 366.037L331.54 347.369L324.092 358.46Z" fill="black"/>
<path d="M349.99 388.069C349.897 388.069 349.805 388.045 349.719 387.996L316.549 368.787C316.42 368.712 316.328 368.587 316.293 368.441C316.259 368.295 316.289 368.141 316.371 368.019L321.697 360.089C321.856 359.852 322.17 359.779 322.417 359.923L355.587 379.132C355.716 379.207 355.808 379.332 355.843 379.478C355.877 379.624 355.847 379.778 355.765 379.9L350.439 387.83C350.336 387.984 350.166 388.069 349.99 388.069ZM317.591 368.141L349.824 386.808L354.548 379.776L322.314 361.108L317.591 368.141Z" fill="black"/>
<path d="M336.414 146.317C336.348 146.317 336.28 146.304 336.214 146.278C334.151 145.451 331.896 144.098 331.8 144.041C331.544 143.888 331.462 143.556 331.618 143.3C331.771 143.044 332.103 142.961 332.359 143.117C332.381 143.132 334.634 144.483 336.617 145.275C336.895 145.385 337.029 145.7 336.917 145.978C336.831 146.19 336.629 146.317 336.414 146.317Z" fill="black"/>
<path d="M357.045 177.753L365.258 182.449C365.938 182.84 366.806 182.598 367.194 181.913L392.568 137.206C393.002 136.443 392.738 135.472 391.98 135.038L371.167 123.135L357.047 177.753H357.045Z" fill="white"/>
<path d="M357.045 177.752L365.258 182.449C365.658 182.678 366.122 182.688 366.514 182.522C366.514 182.522 367.173 182.222 367.902 180.942C368.529 179.84 392.383 137.53 392.383 137.53C392.907 136.604 392.644 135.635 391.886 135.201L371.072 123.299L357.043 177.752H357.045Z" fill="white"/>
<path d="M365.953 183.175C365.619 183.175 365.29 183.088 364.99 182.917L356.777 178.22C356.518 178.072 356.428 177.742 356.577 177.484C356.725 177.225 357.055 177.135 357.313 177.284L365.526 181.981C365.765 182.117 366.046 182.134 366.302 182.024C366.302 182.024 366.829 181.734 367.433 180.673C368.053 179.586 391.676 137.688 391.914 137.264C392.275 136.63 392.153 135.974 391.619 135.669L370.806 123.766C370.547 123.618 370.457 123.288 370.606 123.03C370.755 122.771 371.084 122.681 371.342 122.83L392.156 134.733C393.205 135.333 393.504 136.649 392.853 137.798C392.614 138.22 368.992 180.12 368.372 181.21C367.577 182.602 366.821 182.976 366.738 183.015C366.482 183.124 366.217 183.178 365.956 183.178L365.953 183.175Z" fill="black"/>
<path d="M379.917 151.518L355.572 179.727C355.231 180.125 354.658 180.225 354.204 179.964L306.21 152.518C305.613 152.176 305.476 151.369 305.927 150.845L342.843 108.072C343.184 107.674 343.757 107.574 344.211 107.835L392.205 135.282C392.802 135.623 392.939 136.43 392.488 136.954L382.375 148.689L379.919 151.518H379.917Z" fill="white"/>
<path d="M354.74 180.647C354.465 180.647 354.187 180.576 353.936 180.432L305.942 152.986C305.517 152.742 305.227 152.327 305.142 151.842C305.059 151.357 305.195 150.864 305.515 150.491L342.43 107.718C342.94 107.126 343.798 106.979 344.474 107.365L392.468 134.811C392.892 135.055 393.183 135.469 393.268 135.955C393.351 136.44 393.214 136.933 392.895 137.306L382.782 149.04C382.587 149.267 382.245 149.291 382.021 149.096C381.794 148.901 381.77 148.56 381.965 148.335L392.078 136.601C392.188 136.474 392.234 136.303 392.205 136.138C392.188 136.04 392.131 135.862 391.934 135.75L343.94 108.303C343.713 108.174 343.423 108.223 343.25 108.425L306.334 151.198C306.225 151.325 306.178 151.493 306.207 151.662C306.225 151.759 306.281 151.937 306.478 152.049L354.472 179.496C354.699 179.625 354.989 179.574 355.162 179.374L379.509 151.164C379.704 150.937 380.046 150.913 380.27 151.108C380.497 151.303 380.521 151.645 380.326 151.869L355.982 180.079C355.662 180.449 355.206 180.647 354.743 180.647H354.74Z" fill="black"/>
<path d="M346.581 176.528C346.528 176.538 346.48 176.548 346.432 176.557L346.581 176.528Z" fill="black"/>
<path d="M335.034 123.34L344.181 128.573L337.578 136.223L328.43 130.992L335.034 123.34Z" fill="white"/>
<path d="M337.578 136.765C337.485 136.765 337.395 136.74 337.31 136.694L328.162 131.463C328.023 131.383 327.926 131.244 327.899 131.085C327.872 130.927 327.916 130.763 328.023 130.641L334.627 122.989C334.795 122.794 335.081 122.745 335.305 122.872L344.452 128.103C344.591 128.183 344.689 128.322 344.716 128.481C344.742 128.639 344.699 128.803 344.591 128.925L337.988 136.577C337.883 136.699 337.731 136.765 337.578 136.765ZM329.267 130.851L337.461 135.536L343.345 128.717L335.151 124.033L329.267 130.851Z" fill="black"/>
<path d="M326.977 132.646L336.124 137.879L329.521 145.529L320.371 140.298L326.977 132.646Z" fill="white"/>
<path d="M329.521 146.07C329.428 146.07 329.338 146.045 329.252 145.999L320.105 140.768C319.966 140.688 319.869 140.549 319.842 140.39C319.815 140.232 319.859 140.068 319.966 139.946L326.57 132.294C326.738 132.099 327.021 132.05 327.248 132.177L336.395 137.408C336.534 137.488 336.632 137.627 336.659 137.786C336.685 137.944 336.641 138.108 336.534 138.23L329.93 145.882C329.826 146.004 329.674 146.07 329.521 146.07ZM321.21 140.154L329.404 144.838L335.288 138.02L327.094 133.335L321.21 140.154Z" fill="black"/>
<path d="M346.038 129.634L355.187 134.865L348.581 142.517L339.434 137.286L346.038 129.634Z" fill="white"/>
<path d="M348.581 143.056C348.488 143.056 348.398 143.032 348.313 142.985L339.166 137.755C339.027 137.674 338.929 137.535 338.902 137.377C338.875 137.218 338.919 137.055 339.027 136.933L345.63 129.281C345.799 129.085 346.081 129.037 346.308 129.164L355.455 134.394C355.594 134.475 355.692 134.614 355.719 134.772C355.746 134.931 355.702 135.094 355.594 135.216L348.991 142.868C348.886 142.99 348.735 143.056 348.581 143.056ZM340.27 137.143L348.464 141.827L354.348 135.009L346.155 130.324L340.27 137.143Z" fill="black"/>
<path d="M337.98 138.939L347.127 144.17L340.524 151.822L331.377 146.592L337.98 138.939Z" fill="white"/>
<path d="M340.524 152.362C340.431 152.362 340.341 152.337 340.256 152.291L331.108 147.06C330.969 146.98 330.872 146.841 330.845 146.682C330.818 146.524 330.862 146.36 330.969 146.238L337.573 138.586C337.741 138.391 338.027 138.342 338.251 138.469L347.398 143.7C347.537 143.78 347.635 143.919 347.662 144.078C347.688 144.236 347.644 144.4 347.537 144.522L340.933 152.174C340.829 152.296 340.677 152.362 340.524 152.362ZM332.213 146.446L340.407 151.13L346.291 144.312L338.097 139.627L332.213 146.446Z" fill="black"/>
<path d="M357.043 135.925L366.19 141.156L359.584 148.809L350.437 143.578L357.043 135.925Z" fill="white"/>
<path d="M359.584 149.35C359.491 149.35 359.401 149.326 359.316 149.279L350.168 144.048C350.029 143.968 349.932 143.829 349.905 143.67C349.878 143.512 349.922 143.349 350.029 143.227L356.636 135.574C356.804 135.379 357.089 135.33 357.313 135.457L366.461 140.688C366.6 140.769 366.697 140.908 366.724 141.066C366.751 141.225 366.707 141.388 366.6 141.51L359.996 149.162C359.891 149.284 359.74 149.35 359.586 149.35H359.584ZM351.273 143.434L359.467 148.118L365.351 141.3L357.16 136.616L351.273 143.434Z" fill="black"/>
<path d="M348.983 145.231L358.13 150.462L351.527 158.114L342.379 152.883L348.983 145.231Z" fill="white"/>
<path d="M351.527 158.655C351.434 158.655 351.344 158.631 351.259 158.585L342.111 153.354C341.972 153.273 341.875 153.134 341.848 152.976C341.821 152.817 341.865 152.654 341.972 152.532L348.576 144.88C348.744 144.685 349.03 144.636 349.254 144.763L358.401 149.993C358.54 150.074 358.638 150.213 358.665 150.371C358.691 150.53 358.648 150.693 358.54 150.815L351.936 158.468C351.832 158.59 351.68 158.655 351.527 158.655ZM343.216 152.742L351.41 157.426L357.294 150.608L349.1 145.923L343.216 152.742Z" fill="black"/>
<path d="M368.046 142.217L377.193 147.45L370.589 155.103L361.44 149.869L368.046 142.217Z" fill="white"/>
<path d="M370.587 155.642C370.494 155.642 370.404 155.617 370.318 155.571L361.171 150.34C361.032 150.26 360.935 150.121 360.908 149.962C360.881 149.804 360.925 149.64 361.032 149.518L367.636 141.866C367.804 141.671 368.087 141.622 368.314 141.749L377.461 146.98C377.6 147.06 377.698 147.199 377.725 147.358C377.751 147.516 377.707 147.68 377.6 147.802L370.996 155.454C370.892 155.576 370.74 155.642 370.587 155.642ZM362.276 149.728L370.467 154.413L376.352 147.594L368.158 142.91L362.274 149.728H362.276Z" fill="black"/>
<path d="M359.986 151.526L369.133 156.757L362.53 164.409L353.383 159.176L359.986 151.526Z" fill="white"/>
<path d="M362.53 164.948C362.437 164.948 362.347 164.923 362.261 164.877L353.114 159.646C352.975 159.566 352.878 159.427 352.851 159.268C352.824 159.11 352.868 158.946 352.975 158.824L359.579 151.172C359.747 150.977 360.03 150.928 360.257 151.055L369.404 156.286C369.543 156.366 369.641 156.505 369.667 156.664C369.694 156.822 369.65 156.986 369.543 157.108L362.939 164.76C362.834 164.882 362.683 164.948 362.53 164.948ZM354.219 159.034L362.413 163.719L368.297 156.9L360.103 152.216L354.219 159.034Z" fill="black"/>
<path d="M348.147 115.797C348.056 115.797 347.964 115.775 347.878 115.727C345.376 114.295 344.503 111.084 345.932 108.567C346.627 107.343 347.754 106.465 349.107 106.094C350.451 105.726 351.858 105.904 353.068 106.594C353.16 106.648 353.253 106.704 353.341 106.762C353.59 106.926 353.66 107.26 353.497 107.511C353.333 107.76 352.999 107.831 352.748 107.667C352.677 107.621 352.607 107.577 352.531 107.535C351.573 106.987 350.461 106.848 349.395 107.138C348.322 107.433 347.427 108.13 346.876 109.101C345.74 111.103 346.432 113.654 348.42 114.79C348.678 114.939 348.768 115.268 348.62 115.527C348.52 115.702 348.337 115.8 348.151 115.8L348.147 115.797Z" fill="black"/>
<path d="M354.309 119.321C354.219 119.321 354.126 119.299 354.041 119.251C351.539 117.819 350.666 114.608 352.095 112.091C352.79 110.867 353.916 109.989 355.27 109.618C356.613 109.25 358.02 109.428 359.23 110.118C359.323 110.172 359.413 110.228 359.503 110.284C359.752 110.447 359.823 110.781 359.659 111.033C359.496 111.281 359.162 111.352 358.911 111.189C358.84 111.142 358.767 111.098 358.694 111.057C357.735 110.508 356.621 110.367 355.555 110.659C354.482 110.955 353.587 111.652 353.036 112.623C351.9 114.622 352.592 117.175 354.58 118.312C354.838 118.461 354.928 118.79 354.78 119.048C354.68 119.224 354.497 119.321 354.311 119.321H354.309Z" fill="black"/>
<path d="M360.471 122.845C360.381 122.845 360.288 122.823 360.203 122.774C357.701 121.343 356.828 118.131 358.257 115.614C358.952 114.39 360.079 113.512 361.43 113.142C362.773 112.773 364.18 112.951 365.39 113.642C365.482 113.695 365.573 113.751 365.663 113.807C365.912 113.971 365.982 114.305 365.819 114.556C365.656 114.805 365.322 114.876 365.07 114.712C365 114.666 364.926 114.622 364.853 114.578C363.895 114.029 362.781 113.89 361.717 114.181C360.644 114.476 359.749 115.173 359.198 116.144C358.062 118.146 358.754 120.696 360.742 121.833C361 121.982 361.091 122.311 360.942 122.569C360.842 122.745 360.659 122.842 360.474 122.842L360.471 122.845Z" fill="black"/>
<path d="M366.631 126.369C366.541 126.369 366.448 126.347 366.363 126.298C363.861 124.867 362.988 121.655 364.417 119.138C365.112 117.914 366.239 117.036 367.59 116.666C368.933 116.297 370.34 116.475 371.55 117.165C371.642 117.219 371.733 117.275 371.823 117.334C372.072 117.497 372.142 117.831 371.979 118.082C371.816 118.331 371.482 118.402 371.23 118.238C371.16 118.192 371.089 118.148 371.013 118.107C370.055 117.558 368.941 117.417 367.875 117.709C366.802 118.004 365.907 118.702 365.356 119.672C364.219 121.674 364.912 124.225 366.899 125.362C367.158 125.51 367.248 125.84 367.099 126.098C366.999 126.274 366.816 126.371 366.631 126.371V126.369Z" fill="black"/>
<path d="M372.794 129.893C372.703 129.893 372.611 129.871 372.525 129.822C370.023 128.391 369.15 125.179 370.579 122.662C371.274 121.438 372.401 120.56 373.752 120.19C375.096 119.821 376.503 119.999 377.712 120.689C377.805 120.743 377.895 120.799 377.985 120.855C378.234 121.019 378.305 121.353 378.141 121.604C377.978 121.853 377.644 121.923 377.393 121.76C377.322 121.714 377.249 121.67 377.176 121.626C376.217 121.077 375.103 120.936 374.037 121.228C372.964 121.523 372.069 122.221 371.518 123.191C370.382 125.194 371.074 127.744 373.062 128.881C373.32 129.029 373.41 129.359 373.262 129.617C373.162 129.79 372.979 129.89 372.794 129.89V129.893Z" fill="black"/>
<path d="M378.954 133.416C378.863 133.416 378.771 133.394 378.685 133.345C376.183 131.914 375.31 128.702 376.739 126.186C377.434 124.962 378.561 124.084 379.912 123.713C381.256 123.345 382.663 123.523 383.872 124.213C383.965 124.267 384.055 124.323 384.145 124.379C384.394 124.542 384.465 124.876 384.301 125.127C384.138 125.376 383.804 125.447 383.553 125.283C383.482 125.237 383.409 125.193 383.336 125.149C382.377 124.601 381.263 124.462 380.197 124.752C379.124 125.047 378.229 125.744 377.678 126.715C376.542 128.717 377.234 131.268 379.222 132.404C379.48 132.553 379.571 132.882 379.422 133.141C379.322 133.316 379.139 133.414 378.954 133.414V133.416Z" fill="black"/>
<path d="M384.764 136.738C384.674 136.738 384.581 136.716 384.496 136.667C381.994 135.236 381.121 132.024 382.55 129.508C383.245 128.283 384.372 127.406 385.725 127.035C387.069 126.667 388.476 126.845 389.685 127.535C391.268 128.439 392.253 130.076 392.317 131.91C392.326 132.207 392.095 132.458 391.795 132.468C391.483 132.483 391.246 132.246 391.236 131.946C391.185 130.488 390.405 129.191 389.147 128.471C388.188 127.922 387.074 127.783 386.01 128.074C384.938 128.369 384.043 129.066 383.491 130.037C382.355 132.039 383.048 134.59 385.035 135.726C385.294 135.875 385.384 136.204 385.235 136.462C385.135 136.638 384.952 136.736 384.767 136.736L384.764 136.738Z" fill="black"/>
<path d="M142.582 404.816C142.582 404.816 123.905 363.879 134.62 310.81C134.62 310.81 163.567 335.065 153.132 404.816H142.585H142.582Z" fill="white"/>
<path d="M153.129 405.355H142.582C142.37 405.355 142.18 405.23 142.092 405.038C141.905 404.626 123.466 363.333 134.091 310.7C134.128 310.513 134.262 310.361 134.442 310.298C134.623 310.235 134.823 310.271 134.967 310.393C135.267 310.644 142.375 316.714 148.289 331.453C153.727 345.002 159.072 368.742 153.663 404.894C153.624 405.157 153.398 405.355 153.129 405.355ZM142.936 404.274H152.664C157.914 368.676 152.664 345.299 147.321 331.941C142.563 320.05 136.896 313.78 134.959 311.869C125.288 361.284 141.263 400.382 142.936 404.274Z" fill="black"/>
<path d="M147.15 401.087C147.15 401.087 147.131 401.087 147.121 401.087C146.823 401.07 146.594 400.816 146.611 400.519C148.04 374.345 136.24 318.48 136.12 317.919C136.059 317.626 136.245 317.341 136.537 317.277C136.827 317.216 137.115 317.402 137.179 317.694C137.298 318.258 149.13 374.26 147.691 400.577C147.677 400.865 147.438 401.087 147.152 401.087H147.15Z" fill="black"/>
<path d="M164.218 338.455C164.218 338.455 140.156 381.93 154.629 400.741H162.372C162.372 400.741 177.845 366.757 164.218 338.455Z" fill="white"/>
<path d="M162.371 401.282H154.629C154.461 401.282 154.302 401.204 154.2 401.073C148.081 393.123 147.84 380.106 153.478 362.382C157.653 349.262 163.681 338.306 163.742 338.196C163.84 338.02 164.025 337.911 164.23 337.918C164.432 337.923 164.613 338.042 164.7 338.223C178.281 366.428 163.015 400.626 162.859 400.968C162.771 401.161 162.579 401.285 162.367 401.285L162.371 401.282ZM154.897 400.202H162.018C163.498 396.742 176.081 365.769 164.186 339.661C160.83 346.07 142.29 383.303 154.897 400.202Z" fill="black"/>
<path d="M158.243 402.434C157.955 402.434 157.714 402.205 157.704 401.914C157.006 383.966 163.042 344.919 163.103 344.527C163.149 344.232 163.425 344.032 163.72 344.076C164.015 344.122 164.217 344.398 164.171 344.693C164.11 345.083 158.092 384.03 158.784 401.873C158.796 402.17 158.565 402.422 158.265 402.434C158.257 402.434 158.25 402.434 158.243 402.434Z" fill="black"/>
<path d="M115.431 354.468C115.431 354.468 135.93 361.462 143.351 402.867H135.289C135.289 402.867 118.462 380.127 115.431 354.468Z" fill="white"/>
<path d="M143.351 403.406H135.289C135.118 403.406 134.957 403.325 134.855 403.186C134.687 402.957 117.909 380.037 114.895 354.531C114.873 354.346 114.949 354.166 115.092 354.049C115.236 353.931 115.431 353.897 115.607 353.958C115.822 354.031 120.938 355.834 127.017 362.786C132.584 369.156 140.03 381.261 143.885 402.772C143.914 402.93 143.87 403.091 143.768 403.213C143.665 403.335 143.514 403.406 143.353 403.406H143.351ZM135.564 402.325H142.705C136.203 367.017 119.943 357.202 116.085 355.341C119.182 378.859 133.87 399.958 135.564 402.325Z" fill="black"/>
<path d="M138.944 402.238C138.683 402.238 138.456 402.05 138.412 401.787C135.362 383.346 122.159 364.779 122.025 364.593C121.852 364.352 121.906 364.013 122.149 363.84C122.393 363.667 122.73 363.72 122.903 363.964C123.037 364.152 136.386 382.927 139.478 401.611C139.527 401.906 139.327 402.184 139.034 402.233C139.005 402.238 138.976 402.24 138.947 402.24L138.944 402.238Z" fill="black"/>
<path d="M123.339 399.58H173.911L175.045 423.5C175.323 429.365 170.643 434.271 164.771 434.271H135.888C128.941 434.271 123.313 428.636 123.318 421.688L123.337 399.577L123.339 399.58Z" fill="black"/>
<path d="M237.42 22.1721H224.171V171.244H237.42V22.1721Z" fill="white"/>
<path d="M224.171 171.783C223.873 171.783 223.632 171.541 223.632 171.244V22.1722C223.632 21.8747 223.873 21.6333 224.171 21.6333C224.468 21.6333 224.71 21.8747 224.71 22.1722V171.244C224.71 171.541 224.468 171.783 224.171 171.783Z" fill="black"/>
<path d="M237.42 171.783C237.122 171.783 236.881 171.541 236.881 171.244V22.1722C236.881 21.8747 237.122 21.6333 237.42 21.6333C237.717 21.6333 237.958 21.8747 237.958 22.1722V171.244C237.958 171.541 237.717 171.783 237.42 171.783Z" fill="black"/>
<path d="M278.552 63.8312L331.44 79.2138L368.977 37.465L278.552 63.8312Z" fill="white"/>
<path d="M331.44 79.7526C331.389 79.7526 331.34 79.7452 331.289 79.7306L278.4 64.3479C278.169 64.2821 278.01 64.0699 278.01 63.8285C278.01 63.5871 278.169 63.3774 278.4 63.3091L368.826 36.9429C369.058 36.8747 369.307 36.9698 369.433 37.1746C369.563 37.3795 369.538 37.6428 369.377 37.8233L331.84 79.5697C331.735 79.6843 331.589 79.7477 331.438 79.7477L331.44 79.7526ZM280.483 63.8309L331.264 78.5991L367.307 38.5134L280.483 63.8285V63.8309Z" fill="black"/>
<path d="M304.903 88.6509L297.521 69.3494L355.967 44.7073L306.817 72.0513L317.874 75.2679L304.903 88.6509Z" fill="white"/>
<path d="M304.903 89.1896C304.866 89.1896 304.83 89.1872 304.796 89.1774C304.615 89.1408 304.467 89.014 304.401 88.8409L297.019 69.5394C296.914 69.2663 297.046 68.9614 297.314 68.8492L355.76 44.2072C356.026 44.095 356.331 44.2096 356.455 44.4681C356.582 44.7266 356.482 45.0363 356.233 45.1778L308.215 71.8926L318.028 74.7458C318.211 74.7994 318.35 74.9433 318.398 75.1262C318.447 75.3091 318.396 75.5042 318.264 75.6408L305.293 89.0238C305.191 89.1286 305.049 89.1872 304.905 89.1872L304.903 89.1896ZM298.214 69.6418L305.105 87.6655L316.862 75.5359L306.669 72.5706C306.459 72.5096 306.308 72.3291 306.283 72.1121C306.259 71.8951 306.366 71.6853 306.556 71.5805L347.032 49.0625L298.214 69.6442V69.6418Z" fill="black"/>
<path d="M305.576 83.3612C305.554 83.3612 305.534 83.3612 305.513 83.3588C305.217 83.3247 305.003 83.0564 305.037 82.7613L306.281 71.9925C306.315 71.695 306.583 71.4853 306.878 71.517C307.173 71.5511 307.388 71.8194 307.354 72.1144L306.11 82.8833C306.078 83.1588 305.844 83.3612 305.573 83.3612H305.576Z" fill="black"/>
<path d="M196.658 436.648C193.037 436.648 189.374 436.548 185.772 436.353C185.475 436.336 185.246 436.083 185.263 435.785C185.28 435.488 185.536 435.261 185.831 435.276C189.413 435.471 193.056 435.571 196.658 435.571C215.282 435.571 233.705 432.956 251.415 427.801C251.7 427.718 252 427.882 252.083 428.169C252.166 428.455 252.002 428.755 251.715 428.84C233.905 434.025 215.382 436.651 196.656 436.651L196.658 436.648Z" fill="black"/>
<path d="M309.029 401.284C308.858 401.284 308.69 401.204 308.585 401.055C308.414 400.811 308.473 400.475 308.717 400.304C314.023 396.587 319.205 392.559 324.121 388.333C324.348 388.138 324.69 388.164 324.882 388.389C325.075 388.613 325.05 388.957 324.824 389.15C319.883 393.4 314.672 397.451 309.336 401.187C309.241 401.252 309.134 401.284 309.026 401.284H309.029Z" fill="black"/>
<path d="M134.123 54.5931C133.896 54.5931 133.686 54.4517 133.611 54.2249C133.515 53.942 133.667 53.6347 133.95 53.5396C154.1 46.7652 175.198 43.3317 196.656 43.3317C200.184 43.3317 203.754 43.4268 207.266 43.6121C207.564 43.6267 207.793 43.8828 207.776 44.1803C207.761 44.4778 207.505 44.707 207.208 44.69C203.715 44.5046 200.165 44.4095 196.653 44.4095C175.311 44.4095 154.329 47.826 134.291 54.5614C134.235 54.5809 134.176 54.5907 134.118 54.5907L134.123 54.5931Z" fill="black"/>
<path d="M117.875 60.8775C117.667 60.8775 117.47 60.758 117.38 60.5556C117.26 60.2825 117.385 59.963 117.658 59.8435C119.93 58.8461 122.254 57.878 124.561 56.9684C124.839 56.8587 125.151 56.9952 125.261 57.2732C125.371 57.5512 125.234 57.8634 124.956 57.9731C122.662 58.8778 120.352 59.8386 118.092 60.8336C118.021 60.8653 117.948 60.8799 117.875 60.8799V60.8775Z" fill="black"/>
<path d="M6.76489 191.325C6.721 191.325 6.67467 191.321 6.63077 191.308C6.34302 191.233 6.16744 190.94 6.24303 190.65C10.1692 175.457 15.9365 160.736 23.3888 146.894C23.5303 146.631 23.857 146.533 24.1204 146.675C24.3838 146.816 24.4813 147.143 24.3399 147.406C16.929 161.172 11.191 175.811 7.28919 190.921C7.22579 191.164 7.00632 191.325 6.76733 191.325H6.76489Z" fill="black"/>
<path d="M21.15 328.14C20.9524 328.14 20.7598 328.031 20.6671 327.843C6.95245 300.423 0 270.867 0 239.99C0 225.9 1.4973 211.836 4.45044 198.19C4.51385 197.897 4.8016 197.714 5.09179 197.775C5.38443 197.839 5.56976 198.126 5.50636 198.417C2.56784 211.987 1.0803 225.975 1.0803 239.987C1.0803 270.697 7.99373 300.092 21.6328 327.358C21.7669 327.623 21.6572 327.948 21.3914 328.082C21.3134 328.121 21.2304 328.138 21.15 328.138V328.14Z" fill="black"/>
<path d="M40.2639 154.878C40.1688 154.878 40.0737 154.854 39.9859 154.8C39.7298 154.646 39.6469 154.315 39.8006 154.059C46.5238 142.885 54.5077 132.426 63.533 122.971C63.7378 122.754 64.0817 122.747 64.2963 122.954C64.5109 123.162 64.5206 123.503 64.3134 123.718C55.3417 133.114 47.4065 143.509 40.7248 154.615C40.6224 154.783 40.4443 154.876 40.2614 154.876L40.2639 154.878Z" fill="black"/>
<path d="M30.7482 318.345C30.5434 318.345 30.3459 318.228 30.2556 318.028C19.8599 295.066 14.5876 270.541 14.5876 245.133C14.5876 216.594 21.1743 189.35 34.1647 164.159C34.3013 163.893 34.6256 163.791 34.8914 163.928C35.1572 164.064 35.2596 164.391 35.1231 164.654C22.2131 189.691 15.6679 216.77 15.6679 245.135C15.6679 270.39 20.9061 294.763 31.2384 317.584C31.3603 317.854 31.2384 318.176 30.9702 318.298C30.897 318.33 30.8214 318.347 30.7482 318.347V318.345Z" fill="black"/>
<path d="M298.199 402.762C298.065 402.762 297.931 402.713 297.826 402.611C297.612 402.403 297.604 402.062 297.809 401.847L299.797 399.772C300.004 399.558 300.345 399.55 300.56 399.755C300.775 399.962 300.782 400.304 300.577 400.518L298.59 402.594C298.485 402.703 298.341 402.759 298.199 402.759V402.762Z" fill="black"/>
<path d="M291.244 410.024C291.11 410.024 290.976 409.975 290.871 409.873C290.657 409.666 290.649 409.324 290.854 409.11L292.842 407.034C293.049 406.82 293.39 406.813 293.605 407.017C293.82 407.225 293.827 407.566 293.622 407.781L291.635 409.856C291.53 409.966 291.386 410.022 291.244 410.022V410.024Z" fill="black"/>
<path d="M293.193 402.874C293.056 402.874 292.92 402.823 292.815 402.718L290.798 400.733C290.586 400.524 290.583 400.182 290.793 399.97C291.003 399.758 291.344 399.755 291.556 399.965L293.573 401.95C293.785 402.16 293.788 402.501 293.578 402.713C293.473 402.821 293.332 402.874 293.193 402.874Z" fill="black"/>
<path d="M300.255 409.822C300.118 409.822 299.982 409.77 299.877 409.665L297.86 407.68C297.648 407.471 297.646 407.129 297.855 406.917C298.065 406.705 298.406 406.703 298.619 406.912L300.635 408.897C300.847 409.107 300.85 409.448 300.64 409.661C300.535 409.768 300.394 409.822 300.255 409.822Z" fill="black"/>
<path d="M381.965 203.048C381.831 203.048 381.696 202.999 381.592 202.897C381.377 202.69 381.37 202.348 381.575 202.134L383.562 200.058C383.769 199.844 384.111 199.836 384.325 200.041C384.54 200.249 384.547 200.59 384.342 200.805L382.355 202.88C382.25 202.99 382.106 203.046 381.965 203.046V203.048Z" fill="black"/>
<path d="M375.01 210.308C374.876 210.308 374.742 210.259 374.637 210.157C374.423 209.949 374.415 209.608 374.62 209.393L376.608 207.318C376.815 207.104 377.156 207.096 377.371 207.301C377.585 207.508 377.593 207.85 377.388 208.064L375.4 210.14C375.296 210.249 375.152 210.305 375.01 210.305V210.308Z" fill="black"/>
<path d="M376.959 203.158C376.822 203.158 376.685 203.107 376.581 203.002L374.564 201.017C374.352 200.807 374.349 200.466 374.559 200.253C374.769 200.041 375.11 200.039 375.322 200.249L377.339 202.234C377.551 202.443 377.554 202.785 377.344 202.997C377.239 203.104 377.098 203.158 376.959 203.158Z" fill="black"/>
<path d="M384.021 210.108C383.884 210.108 383.748 210.057 383.643 209.952L381.626 207.967C381.414 207.757 381.411 207.416 381.621 207.203C381.831 206.991 382.172 206.989 382.384 207.199L384.401 209.184C384.613 209.393 384.616 209.735 384.406 209.947C384.301 210.054 384.16 210.108 384.021 210.108Z" fill="black"/>
<path d="M164.113 179.876C163.964 179.876 163.815 179.815 163.708 179.693C162.252 178.055 161.218 176.062 160.633 173.772C160.56 173.482 160.733 173.19 161.023 173.116C161.313 173.043 161.606 173.216 161.679 173.507C162.221 175.628 163.176 177.469 164.515 178.979C164.713 179.201 164.693 179.542 164.469 179.742C164.367 179.832 164.237 179.879 164.11 179.879L164.113 179.876ZM160.645 167.747C160.645 167.747 160.621 167.747 160.611 167.747C160.314 167.727 160.087 167.471 160.106 167.174C160.236 165.147 160.599 162.967 161.189 160.687C161.265 160.399 161.557 160.224 161.847 160.299C162.135 160.375 162.311 160.67 162.235 160.958C161.662 163.169 161.308 165.284 161.184 167.242C161.167 167.527 160.928 167.747 160.645 167.747ZM163.754 155.212C163.689 155.212 163.62 155.2 163.552 155.173C163.276 155.061 163.142 154.747 163.252 154.471C164.045 152.498 164.971 150.503 166.005 148.543C166.144 148.279 166.471 148.177 166.734 148.316C166.998 148.455 167.1 148.782 166.961 149.045C165.944 150.974 165.032 152.935 164.254 154.873C164.169 155.083 163.967 155.212 163.752 155.212H163.754ZM169.792 143.758C169.69 143.758 169.585 143.729 169.492 143.668C169.244 143.502 169.178 143.168 169.344 142.919C170.339 141.427 171.334 140.093 172.297 138.949C172.646 138.535 172.997 138.13 173.355 137.735C173.555 137.513 173.897 137.496 174.118 137.696C174.34 137.896 174.357 138.237 174.157 138.459C173.809 138.847 173.462 139.244 173.121 139.647C172.185 140.759 171.214 142.063 170.241 143.522C170.136 143.678 169.966 143.761 169.792 143.761V143.758ZM178.401 134.128C178.247 134.128 178.096 134.062 177.989 133.938C177.796 133.711 177.825 133.37 178.052 133.177C179.7 131.782 181.473 130.475 183.322 129.29C183.573 129.129 183.907 129.202 184.068 129.453C184.229 129.705 184.156 130.039 183.905 130.2C182.095 131.358 180.361 132.638 178.749 134.001C178.647 134.087 178.525 134.128 178.401 134.128ZM189.269 127.139C189.067 127.139 188.874 127.027 188.782 126.832C188.653 126.564 188.767 126.239 189.035 126.112C190.942 125.198 192.974 124.359 195.071 123.618C195.351 123.518 195.661 123.667 195.761 123.947C195.861 124.227 195.712 124.537 195.432 124.637C193.371 125.366 191.376 126.191 189.504 127.088C189.428 127.124 189.35 127.142 189.269 127.142V127.139ZM201.45 122.798C201.209 122.798 200.989 122.635 200.926 122.391C200.853 122.101 201.028 121.808 201.316 121.735C203.34 121.221 205.484 120.762 207.688 120.372C207.981 120.321 208.261 120.516 208.315 120.811C208.366 121.104 208.171 121.384 207.876 121.438C205.698 121.823 203.579 122.274 201.582 122.784C201.538 122.796 201.492 122.801 201.448 122.801L201.45 122.798ZM214.194 120.513C213.924 120.513 213.69 120.311 213.658 120.035C213.624 119.738 213.836 119.472 214.131 119.436C216.179 119.199 218.36 118.997 220.61 118.841C220.908 118.819 221.166 119.043 221.186 119.343C221.208 119.64 220.983 119.899 220.686 119.918C218.45 120.075 216.287 120.272 214.255 120.509C214.233 120.509 214.214 120.511 214.192 120.511L214.194 120.513ZM259.53 119.784H259.526C257.097 119.762 254.78 119.699 253.034 119.648C252.736 119.638 252.502 119.389 252.51 119.092C252.519 118.794 252.761 118.565 253.066 118.567C254.807 118.619 257.114 118.682 259.535 118.704C259.833 118.706 260.074 118.95 260.069 119.25C260.067 119.548 259.825 119.784 259.53 119.784ZM266.012 119.728C265.722 119.728 265.481 119.497 265.473 119.204C265.464 118.906 265.7 118.658 265.998 118.648C268.307 118.58 270.416 118.46 272.443 118.28C272.743 118.253 273.001 118.472 273.028 118.77C273.055 119.067 272.835 119.328 272.538 119.355C270.492 119.536 268.363 119.657 266.032 119.726C266.027 119.726 266.022 119.726 266.015 119.726L266.012 119.728ZM227.126 119.584C226.836 119.584 226.597 119.355 226.587 119.062C226.578 118.765 226.809 118.514 227.107 118.504C229.111 118.433 231.235 118.382 233.601 118.35H233.608C233.903 118.35 234.145 118.587 234.147 118.884C234.152 119.182 233.913 119.428 233.613 119.431C231.257 119.462 229.141 119.511 227.143 119.584C227.136 119.584 227.131 119.584 227.124 119.584H227.126ZM246.572 119.45C246.572 119.45 246.562 119.45 246.557 119.45C244.874 119.406 243.55 119.384 242.387 119.384L242.285 118.845V119.384L240.092 119.387C239.795 119.387 239.553 119.145 239.553 118.848C239.553 118.55 239.795 118.307 240.092 118.307H242.287L242.389 118.304C243.56 118.304 244.894 118.324 246.586 118.37C246.884 118.377 247.12 118.626 247.113 118.923C247.106 119.216 246.864 119.45 246.574 119.45H246.572ZM278.917 118.531C278.659 118.531 278.432 118.346 278.386 118.085C278.334 117.792 278.53 117.512 278.825 117.46C281.063 117.068 283.16 116.57 285.063 115.983C285.348 115.895 285.65 116.053 285.738 116.339C285.826 116.624 285.667 116.926 285.382 117.014C283.436 117.616 281.295 118.124 279.012 118.524C278.981 118.528 278.949 118.531 278.917 118.531ZM291.213 114.593C291.02 114.593 290.832 114.488 290.735 114.305C290.596 114.041 290.696 113.715 290.959 113.576C292.925 112.534 294.656 111.308 296.109 109.932C296.326 109.728 296.668 109.737 296.873 109.954C297.078 110.171 297.068 110.513 296.851 110.718C295.327 112.159 293.515 113.444 291.464 114.532C291.383 114.575 291.296 114.595 291.21 114.595L291.213 114.593ZM300.379 105.738C300.294 105.738 300.209 105.718 300.128 105.675C299.865 105.536 299.762 105.209 299.904 104.945C300.848 103.158 301.535 101.158 301.947 99.0026C302.003 98.7099 302.286 98.5173 302.579 98.5734C302.872 98.6295 303.064 98.9123 303.008 99.205C302.574 101.466 301.852 103.565 300.86 105.448C300.762 105.631 300.577 105.736 300.382 105.736L300.379 105.738Z" fill="black"/>
</g>
<defs>
<clipPath id="clip0_1_766">
<rect width="420" height="446.264" fill="white" transform="translate(0 0.875977)"/>
</clipPath>
</defs>
</svg>
